<?xml version="1.0" standalone="no"?>
<!DOCTYPE svg PUBLIC "-//W3C//DTD SVG 20010904//EN"
 "http://www.w3.org/TR/2001/REC-SVG-20010904/DTD/svg10.dtd">
<svg version="1.0" xmlns="http://www.w3.org/2000/svg"
 width="800.000000pt" height="800.000000pt" viewBox="0 0 800.000000 800.000000"
 preserveAspectRatio="xMidYMid meet">

<g transform="translate(0.000000,800.000000) scale(0.100000,-0.100000)"
fill="#000000" stroke="none">
<path d="M3708 4868 c-34 -9 -38 -13 -38 -43 0 -61 -70 -328 -96 -366 -13 -19
-24 -37 -24 -40 0 -5 66 0 87 6 9 3 9 13 3 36 -11 36 4 109 21 109 6 0 7 5 4
10 -4 6 6 64 21 130 25 108 29 119 52 125 14 3 28 2 32 -2 8 -8 50 -197 53
-234 1 -11 4 -19 8 -19 8 0 32 -120 27 -139 -2 -9 15 -13 70 -13 39 0 71 4 71
8 -1 5 -6 18 -10 29 -15 35 -91 386 -86 398 6 16 -143 19 -195 5z"/>
<path d="M3105 4640 l0 -225 70 0 70 0 -4 117 -3 118 57 -3 57 -2 -4 -115 -3
-115 70 0 70 0 0 225 0 225 -70 0 -70 0 4 -94 c3 -105 -2 -114 -55 -99 -19 5
-39 6 -45 2 -8 -4 -10 23 -7 92 l3 99 -70 0 -70 0 0 -225z"/>
<path d="M4065 4640 l0 -225 72 0 71 0 -5 53 -6 52 44 0 c102 1 181 74 181
168 0 65 -26 118 -75 150 -38 26 -47 27 -161 27 l-121 0 0 -225z m248 179 c24
-30 21 -55 -13 -124 -33 -66 -38 -106 -15 -125 20 -17 10 -30 -25 -30 -60 0
-60 -1 -60 155 0 105 3 145 13 149 24 11 82 -4 100 -25z"/>
<path d="M4482 4839 c9 -26 7 -383 -2 -407 -4 -10 12 -13 70 -13 57 0 74 3 71
13 -2 7 -5 29 -8 49 l-5 36 61 5 c69 5 119 37 153 98 27 48 19 129 -17 176
-45 59 -75 69 -211 69 l-121 0 9 -26z m240 -16 c26 -23 23 -77 -8 -129 -31
-52 -36 -111 -11 -129 22 -16 11 -25 -29 -25 -65 0 -64 -2 -64 155 0 128 2
144 18 148 27 8 74 -2 94 -20z"/>
<path d="M5187 4863 c-34 -4 -37 -7 -31 -26 4 -12 7 -29 6 -37 -1 -30 -55
-151 -62 -143 -16 17 -70 152 -70 175 0 22 -3 23 -85 23 -54 0 -84 -3 -81 -10
2 -5 32 -73 66 -149 63 -139 63 -140 57 -215 l-5 -76 74 0 c62 0 73 2 68 15
-4 8 -9 47 -12 86 -4 68 -2 77 43 180 26 60 58 123 71 140 21 27 23 48 5 42
-3 -1 -23 -3 -44 -5z"/>
<path d="M2012 4077 c-49 -8 -53 -11 -48 -30 5 -20 -53 -286 -75 -345 -6 -15
-20 -37 -31 -49 -12 -13 -20 -25 -17 -27 2 -2 24 -2 49 1 l46 5 0 62 c1 34 16
122 35 201 l35 140 31 3 31 3 17 -78 c9 -43 28 -121 41 -173 13 -52 24 -108
24 -125 l0 -30 75 0 c75 0 83 3 66 21 -12 12 -101 402 -95 418 5 14 -107 16
-184 3z"/>
<path d="M2703 4083 l-43 -4 16 -31 c19 -37 31 -138 17 -138 -6 0 -45 27 -87
61 -57 44 -76 66 -74 80 3 19 -3 20 -72 22 l-75 2 3 -176 c3 -159 -1 -208 -23
-261 -6 -14 -1 -16 37 -11 24 3 45 7 47 9 2 1 -4 22 -13 46 -13 33 -16 70 -14
161 l3 119 125 -99 c69 -55 131 -107 138 -116 16 -18 8 -68 -15 -103 -14 -21
-13 -22 34 -16 26 2 49 6 51 7 1 1 -5 18 -13 38 -21 51 -21 322 0 374 17 41
18 44 8 41 -5 -1 -27 -3 -50 -5z"/>
<path d="M3168 4083 c-42 -5 -43 -7 -23 -43 14 -24 21 -130 9 -130 -3 0 -39
26 -80 57 -57 45 -74 63 -74 83 0 25 -1 25 -77 23 -70 -2 -77 -4 -73 -20 3
-10 5 -97 5 -193 -1 -144 -4 -181 -18 -206 l-16 -31 47 5 c26 2 48 6 50 7 2 2
-4 18 -14 37 -21 40 -35 293 -16 287 6 -2 70 -50 142 -107 118 -94 130 -106
130 -135 0 -18 -7 -45 -15 -61 -8 -15 -15 -29 -15 -31 0 -3 94 7 98 10 2 2 -5
16 -15 31 -16 24 -18 50 -18 194 0 139 3 170 18 198 12 23 14 32 5 30 -7 -1
-30 -3 -50 -5z"/>
<path d="M5385 4076 c-48 -11 -50 -13 -47 -41 5 -49 -65 -325 -93 -367 -14
-21 -25 -39 -25 -42 0 -3 92 4 98 9 1 1 -3 16 -9 34 -9 25 -8 42 4 79 8 26 27
102 43 170 l27 122 31 0 32 0 25 -120 c18 -85 22 -123 15 -130 -8 -8 -7 -9 4
-5 13 4 18 -7 28 -53 7 -32 12 -67 12 -78 0 -17 7 -19 74 -19 54 0 72 3 65 11
-12 14 -101 400 -97 421 2 12 -10 15 -67 17 -38 1 -92 -2 -120 -8z"/>
<path d="M3295 3850 l0 -225 70 0 70 0 0 225 0 225 -70 0 -70 0 0 -225z"/>
<path d="M3861 4072 c-39 -3 -42 -5 -36 -25 4 -12 6 -31 6 -43 -1 -21 -57
-162 -70 -177 -9 -10 -103 197 -99 219 3 13 -9 16 -79 15 -46 0 -86 0 -89 -1
-4 0 -2 -6 4 -12 9 -12 111 -226 179 -377 l24 -54 30 51 c16 29 38 58 49 64
21 13 27 38 10 38 -5 0 -10 7 -10 15 0 22 89 221 112 250 26 34 21 41 -31 37z"/>
<path d="M3975 3850 l0 -225 129 -3 c113 -2 134 0 171 18 23 11 47 32 53 46
17 35 15 86 -4 113 l-16 23 -27 -26 c-15 -14 -41 -28 -58 -32 -30 -6 -31 -6
-12 -25 42 -42 6 -102 -59 -97 l-37 3 -3 134 c-3 143 0 151 45 151 13 0 45
-12 72 -27 47 -26 49 -27 75 -10 29 19 35 57 12 76 -11 9 -15 7 -19 -9 -6 -23
-31 -26 -87 -9 -28 8 -47 9 -69 1 l-31 -11 0 56 0 56 78 -6 c42 -3 87 -9 100
-12 21 -7 22 -6 12 16 -11 24 -12 24 -168 24 l-157 0 0 -225z"/>
<path d="M4405 3850 l0 -225 70 0 71 0 -4 89 c-6 110 7 112 58 9 45 -90 56
-103 92 -103 62 0 103 86 61 132 -16 17 -17 17 -27 -4 -20 -40 -56 -34 -106
17 l-44 45 34 0 c48 0 100 28 128 70 41 61 18 142 -53 183 -12 8 -70 12 -150
12 l-130 0 0 -225z m231 185 c12 -18 10 -28 -11 -74 -26 -56 -32 -96 -15 -106
18 -11 10 -25 -14 -25 -54 0 -56 5 -56 114 0 57 3 106 7 110 14 14 76 1 89
-19z"/>
<path d="M4915 4066 c-41 -18 -65 -47 -71 -88 -8 -48 34 -94 134 -146 43 -23
86 -50 97 -62 27 -30 25 -88 -4 -111 -51 -42 -167 -9 -159 45 2 17 9 21 36 20
40 -2 43 22 8 62 -31 37 -90 39 -117 5 -60 -74 32 -171 161 -171 103 0 178 54
187 134 10 86 -24 124 -157 176 -66 26 -90 46 -90 75 0 54 82 74 125 31 15
-15 22 -31 19 -40 -9 -24 19 -19 44 7 22 23 31 54 13 43 -5 -3 -29 3 -52 14
-51 23 -130 25 -174 6z"/>
<path d="M5735 3850 l0 -225 70 0 71 0 -4 88 c-5 109 6 113 53 16 42 -89 60
-109 97 -109 62 0 99 76 62 129 l-16 23 -12 -24 c-20 -39 -52 -35 -106 16
l-49 46 35 0 c109 0 181 98 138 186 -35 70 -58 79 -207 79 l-132 0 0 -225z
m223 198 c18 -18 14 -59 -8 -96 -22 -36 -26 -73 -10 -103 9 -16 7 -19 -14 -19
-54 0 -56 5 -56 114 0 57 3 106 7 109 11 12 68 8 81 -5z"/>
<path d="M6453 4072 c-48 -4 -47 -2 -32 -36 10 -21 7 -38 -21 -106 -18 -44
-34 -79 -35 -78 -12 14 -75 174 -75 191 0 21 -4 22 -85 22 -47 0 -85 0 -85 -1
0 0 30 -65 66 -145 l66 -144 -4 -80 -4 -80 70 0 71 0 -3 95 c-3 92 -2 98 38
190 23 52 53 110 67 128 30 40 23 48 -34 44z"/>
</g>
</svg>
